<?xml version="1.0" encoding="UTF-8"?>
<!DOCTYPE svg PUBLIC "-//W3C//DTD SVG 1.1//EN" "http://www.w3.org/Graphics/SVG/1.1/DTD/svg11.dtd">
<!-- Creator: CorelDRAW -->
<svg xmlns="http://www.w3.org/2000/svg" xml:space="preserve" width="8.5in" height="11in" version="1.1" style="shape-rendering:geometricPrecision; text-rendering:geometricPrecision; image-rendering:optimizeQuality; fill-rule:evenodd; clip-rule:evenodd"
viewBox="0 0 8500 11000"
 xmlns:xlink="http://www.w3.org/1999/xlink"
 xmlns:xodm="http://www.corel.com/coreldraw/odm/2003">
 <defs>
  <style type="text/css">
   <![CDATA[
    .fil0 {fill:#D2AE6D}
   ]]>
  </style>
 </defs>
 <g id="Layer_x0020_1">
  <metadata id="CorelCorpID_0Corel-Layer"/>
  <g id="_2255974202688">
   <path class="fil0" d="M5399.23 6555.88c141.99,-686.47 -252.96,-1693.31 306.78,-1936.78 298.62,-129.91 612.81,80.96 642.83,398.24 45.76,483.94 -550.43,508.35 -592.68,522.17l-57.88 284.19c155.78,97.02 856.02,-10.7 968.06,-654.98 78.64,-452.2 -314.21,-927.57 -772.29,-926.81 -524.59,0.87 -821.52,432.85 -819.07,922.04 1.47,290.04 2.93,580.7 0,870.71 -1.82,180.06 -21.33,198.97 108.67,325.98 54.75,53.5 153.35,177.53 215.58,195.24z"/>
   <path class="fil0" d="M4231.98 5522.59c-743.22,-0.71 -744.66,-779.31 -263.85,-927.83 238.25,-73.63 493.63,106.41 538.99,345.9 42.06,222.16 -39.09,712.04 24.54,900.43 6.35,0.92 274.64,-0.63 297.2,-1.72 39.16,-129.3 15.8,-561.7 16.87,-725.99 5.05,-762.85 -672.46,-1040.85 -1159.55,-750.16 -453.89,270.87 -576.29,1012.27 25.65,1372.71 207.69,124.35 341.46,122.3 571.26,93.49 -2.9,-137.3 -51,-154.59 -51.13,-306.81z"/>
   <path class="fil0" d="M2841.58 4260.02c-62.11,210.05 26.12,645.61 -6.8,835.25 -109.5,630.64 -890.55,478.66 -929.48,18.3 -17.91,-211.8 34.48,-683.82 -15.72,-853.55 -91.11,-27 -209.7,-27 -300.8,0 -37.72,127.58 -15.77,446.89 -15.8,597.82 -0.06,234.06 -26.81,302.47 68.55,519.51 251.39,572.02 1124.69,665.03 1453.36,5.28 89.66,-179.92 92.24,-922.06 54.75,-1139.25l-308.07 16.64z"/>
   <path class="fil0" d="M217.95 5829.4c314.98,69.57 633.21,-234.27 744.79,-508.04 81.91,-201.06 6.1,-323.69 124.41,-514.75 37.75,-60.97 105.04,-127.5 169.71,-162.72 74.97,-40.89 138.46,-42.49 216.15,-92.92l-19.09 -289.93c-207.24,-69.03 -597.37,182.24 -721.71,523.02 -71.87,196.92 -15.55,360.22 -125.81,513.39 -164.52,228.59 -248.5,153.89 -388.45,250.69l0 281.26z"/>
  </g>
 </g>
</svg>
