<?xml version="1.0" encoding="UTF-8"?>
<!DOCTYPE svg PUBLIC "-//W3C//DTD SVG 1.1//EN" "http://www.w3.org/Graphics/SVG/1.1/DTD/svg11.dtd">
<!-- Creator: CorelDRAW -->
<svg xmlns="http://www.w3.org/2000/svg" xml:space="preserve" width="8.5in" height="11in" version="1.1" style="shape-rendering:geometricPrecision; text-rendering:geometricPrecision; image-rendering:optimizeQuality; fill-rule:evenodd; clip-rule:evenodd"
viewBox="0 0 8500 11000"
 xmlns:xlink="http://www.w3.org/1999/xlink"
 xmlns:xodm="http://www.corel.com/coreldraw/odm/2003">
 <defs>
  <style type="text/css">
   <![CDATA[
    .fil0 {fill:#FEFEFE}
   ]]>
  </style>
 </defs>
 <g id="Layer_x0020_1">
  <metadata id="CorelCorpID_0Corel-Layer"/>
  <path class="fil0" d="M5242.91 6463.15c130.61,-631.51 -232.7,-1557.71 282.2,-1781.71 274.71,-119.5 563.75,74.49 591.37,366.37 42.09,445.18 -506.35,467.62 -545.23,480.35l-53.25 261.44c143.32,89.26 787.49,-9.84 890.55,-602.54 72.33,-415.98 -289.04,-853.29 -710.44,-852.6 -482.58,0.81 -755.74,398.19 -753.49,848.22 1.37,266.81 2.7,534.19 0,800.98 -1.67,165.64 -19.62,183.03 99.98,299.87 50.36,49.22 141.06,163.32 198.31,179.63z"/>
  <path class="fil0" d="M4169.13 5512.61c-683.7,-0.67 -685.03,-716.9 -242.74,-853.56 219.18,-67.72 454.11,97.91 495.82,318.22 38.7,204.37 -35.93,655 22.59,828.31 5.85,0.83 252.66,-0.58 273.4,-1.57 36.04,-118.95 14.54,-516.73 15.53,-667.87 4.64,-701.76 -618.6,-957.49 -1066.69,-690.09 -417.54,249.19 -530.13,931.22 23.59,1262.78 191.06,114.39 314.12,112.51 525.52,86.01 -2.66,-126.32 -46.92,-142.21 -47.03,-282.23z"/>
  <path class="fil0" d="M2890.07 4351.13c-57.15,193.22 24.02,593.91 -6.26,768.36 -100.72,580.15 -819.24,440.34 -855.05,16.84 -16.47,-194.84 31.73,-629.06 -14.46,-785.2 -83.81,-24.83 -192.91,-24.83 -276.72,0 -34.69,117.35 -14.5,411.09 -14.52,549.94 -0.06,215.31 -24.68,278.26 63.06,477.91 231.27,526.22 1034.64,611.78 1336.99,4.85 82.47,-165.5 84.82,-848.2 50.36,-1048.02l-283.4 15.31z"/>
  <path class="fil0" d="M476.54 5794.84c289.75,63.99 582.49,-215.51 685.13,-467.36 75.37,-184.96 5.62,-297.76 114.46,-473.52 34.71,-56.09 96.61,-117.28 156.1,-149.7 68.98,-37.61 127.37,-39.09 198.85,-85.48l-17.55 -266.7c-190.65,-63.5 -549.52,167.65 -663.93,481.13 -66.11,181.15 -14.31,331.39 -115.72,472.28 -151.33,210.28 -228.59,141.55 -357.34,230.61l0 258.74z"/>
 </g>
</svg>
