<?xml version="1.0" encoding="UTF-8"?>
<!DOCTYPE svg PUBLIC "-//W3C//DTD SVG 1.1//EN" "http://www.w3.org/Graphics/SVG/1.1/DTD/svg11.dtd">
<!-- Creator: CorelDRAW -->
<svg xmlns="http://www.w3.org/2000/svg" xml:space="preserve" width="8.5in" height="11in" version="1.1" style="shape-rendering:geometricPrecision; text-rendering:geometricPrecision; image-rendering:optimizeQuality; fill-rule:evenodd; clip-rule:evenodd"
viewBox="0 0 8500 11000"
 xmlns:xlink="http://www.w3.org/1999/xlink"
 xmlns:xodm="http://www.corel.com/coreldraw/odm/2003">
 <defs>
  <style type="text/css">
   <![CDATA[
    .fil0 {fill:#201E1E}
   ]]>
  </style>
 </defs>
 <g id="Layer_x0020_1">
  <metadata id="CorelCorpID_0Corel-Layer"/>
  <g id="_2256048434976">
   <path class="fil0" d="M6317.72 5353.08c78.49,-379.45 -139.82,-936.03 169.61,-1070.63 165.05,-71.8 338.75,44.77 355.32,220.15 25.29,267.5 -304.26,281 -327.61,288.63l-32.01 157.11c86.11,53.65 473.22,-5.91 535.13,-362.08 43.47,-249.96 -173.67,-512.72 -426.9,-512.33 -289.98,0.48 -454.13,239.28 -452.77,509.72 0.81,160.33 1.61,320.99 0,481.32 -1,99.52 -11.79,109.98 60.08,180.2 30.26,29.56 84.75,98.13 119.15,107.91z"/>
   <path class="fil0" d="M5672.48 4781.9c-410.81,-0.39 -411.62,-430.78 -145.87,-512.91 131.72,-40.7 272.9,58.85 297.96,191.24 23.26,122.8 -21.61,393.57 13.57,497.73 3.52,0.48 151.84,-0.35 164.31,-0.97 21.64,-71.48 8.72,-310.49 9.33,-401.32 2.78,-421.7 -371.73,-575.35 -640.98,-414.66 -250.93,149.71 -318.57,559.56 14.15,758.81 114.82,68.73 188.76,67.6 315.79,51.68 -1.58,-75.91 -28.2,-85.46 -28.26,-169.61z"/>
   <path class="fil0" d="M4903.89 4083.98c-34.33,116.11 14.44,356.87 -3.75,461.72 -60.53,348.61 -492.27,264.6 -513.78,10.11 -9.92,-117.08 19.06,-378 -8.72,-471.83 -50.35,-14.92 -115.89,-14.92 -166.28,0 -20.83,70.51 -8.69,247.02 -8.72,330.45 -0.03,129.39 -14.82,167.21 37.89,287.17 138.98,316.21 621.73,367.63 803.41,2.94 49.55,-99.48 50.97,-509.72 30.27,-629.77l-170.31 9.2z"/>
   <path class="fil0" d="M3453.59 4951.51c174.13,38.47 350.03,-129.52 411.72,-280.84 45.28,-111.14 3.36,-178.94 68.76,-284.56 20.87,-33.69 58.07,-70.48 93.83,-89.95 41.44,-22.58 76.52,-23.48 119.47,-51.35l-10.56 -160.27c-114.57,-38.15 -330.2,100.74 -398.96,289.11 -39.73,108.85 -8.59,199.13 -69.54,283.81 -90.92,126.35 -137.33,85.04 -214.72,138.56l0 155.49z"/>
  </g>
 </g>
</svg>
